<svg xmlns="http://www.w3.org/2000/svg" data-name="Layer 1" width="761.16469" height="573.26076" viewBox="0 0 761.16469 573.26076" xmlns:xlink="http://www.w3.org/1999/xlink"><path d="M795.19145,287.9248c-13.48355-29.25072-19.3881-60.77515-15.25269-95.31151-.63891-4.01772,1.60067-8.04395,5.00634-9.00021l61.045-17.05489c3.40711-.94712,6.68847,1.53668,7.33507,5.55226L868.57793,267.422c.63892,4.01772-1.6006,8.044-5.00626,9.00014l-61.045,17.05489C799.11955,294.42411,795.83812,291.94038,795.19145,287.9248Z" transform="translate(-219.41766 -163.36962)" fill="#e6e6e6"/><ellipse cx="813.81216" cy="175.77231" rx="12.43264" ry="10.37768" transform="translate(315.78784 796.98185) rotate(-82.63777)" fill="#f2f2f2"/><path d="M619.47082,295.31492c-13.48356-29.25072-19.38811-60.77515-15.2527-95.31151-.63891-4.01772,1.60067-8.04395,5.00634-9.00021l61.045-17.05489c3.40711-.94712,6.68847,1.53668,7.33507,5.55226l15.25275,95.31151c.63892,4.01772-1.6006,8.044-5.00626,9.00014l-61.045,17.05489C623.39891,301.81423,620.11748,299.3305,619.47082,295.31492Z" transform="translate(-219.41766 -163.36962)" fill="#e6e6e6"/><ellipse cx="638.09152" cy="183.16243" rx="12.43264" ry="10.37768" transform="translate(155.25519 629.15302) rotate(-82.63777)" fill="#f2f2f2"/><rect y="341.6128" width="614.60645" height="2" fill="#3f3d56"/><path d="M469.41766,268.98242c-.725-2.53751,9.41132,20.72,7,21-10.98269,1.26-35.31853,6.94-42.96788,10-.34451-.04-.689-.08-1.02331-.13-.82065-.09-1.62109-.22-2.41132-.37-17.81139-3.37-31.28642-18-31.65114-35.66-.02028-.25-.02028-.51-.02028-.76a33.47951,33.47951,0,0,1,.1925-3.65,34.33268,34.33268,0,0,1,.86116-4.91l-.0405-.00995c-7.09213-6.66-4.10329-19.01,4.93409-24.22a32.5508,32.5508,0,0,1,12.78608-4.15,34.279,34.279,0,0,1,3.67778-.2h11.53992a53.63143,53.63143,0,0,1,7.24406-1.05h.02028c23.23178-1.77,41.54974,12.39,39.8375,29.62-.01014.02-.03043.04-.04051.06-.4965.74-.93215,1.44-1.31716,2.11-.37486.63-.68894,1.23-.96245,1.8-2.11753,4.4,3.32552,9.93661-.2837,10.97-4.80026,1.37445,12.62488,46.55-6.37512,46.55C479.65969,318.6101,471.41766,275.98242,469.41766,268.98242Z" transform="translate(-219.41766 -163.36962)" fill="#2f2e41"/><polygon points="356.007 542.274 370.991 542.147 377.622 483.008 355.51 483.195 356.007 542.274" fill="#ffb6b6"/><path d="M623.41749,729.4685a6.70746,6.70746,0,0,1-6.64132,6.75737l-29.78956.24859-5.21507-10.57089-1.91533,10.62486-11.24025.10195,2.83831-37.89484,3.91065-.26016,15.95083-1.09955,5.14613-.34462.09025,10.72188,23.92992,16.231A6.69637,6.69637,0,0,1,623.41749,729.4685Z" transform="translate(-219.41766 -163.36962)" fill="#2f2e41"/><path d="M594.41766,675.98242c-5.96-.72-21-2-21-2s-7.1-14.82-5.95-19.43c1.13-4.63,3.95-5.57,1.33-7.99-6.38-23.57995-5.36-61.87994-5.36-61.87994s-34.34-16.63-69.11-35.88c-33.99-18.83-68.38995-40.16-71.5-50.91a136.94481,136.94481,0,0,1-4.12-23.47c-.51995-5.2-.84-10.3-1.04-14.87-.47-10.46-.28-18.19-.28-18.19l43.33-.72,28.7-.66h3v5l7.54,12.82s13.03,15.15,11.5,16.56c-1.85,1.71-1.29,3.23,5.28,4.47a21.36163,21.36163,0,0,0,5.66.23c10.61-.81,15.05,5.26,15.31,6.59,1.78,9.39,19.63,29.79,36.35,47.2h.01c15.43,16.08,29.89,29.6,29.89,29.6l.82,17.25,3.85,80.65s-7.22-4.04-.77,4.67C614.30767,673.74243,600.37768,676.69238,594.41766,675.98242Z" transform="translate(-219.41766 -163.36962)" fill="#2f2e41"/><polygon points="537.561 325.082 543.678 311.402 492.655 280.775 483.627 300.962 537.561 325.082" fill="#ffb6b6"/><path d="M798.60652,454.71652a6.70747,6.70747,0,0,1,3.38287,8.85017l-12.16411,27.194-11.78222.34591,8.86561,6.16093-4.58237,10.26428-33.281-18.34249,1.38993-3.66456,5.6344-14.963,1.827-4.82322,9.788,4.3774,24.71347-15.011A6.69638,6.69638,0,0,1,798.60652,454.71652Z" transform="translate(-219.41766 -163.36962)" fill="#2f2e41"/><path d="M730.73324,455.34277c-.03479.078-.07675.149-.11172.21286-2.78777,5.11668-7.3629,16.95567-7.64805,17.6859a.10886.10886,0,0,0-.01387.04247s-15.09507-.7777-18.95292-3.5455c-3.8651-2.78895,1.9835,1.62042-6.92917-4.21139-4.60912-3.03154-20.3949-7.76456-34.53447-11.63162-13.15489-3.59773-24.87628-6.427-24.87628-6.427s-10.36109,9.43038-25.37255,22.46216l-.007.00712C598.34425,482.015,580.377,497.2018,562.96506,510.801c-37.27819,10.96476-76.6237,20.46519-86.45949,15.1274a136.94528,136.94528,0,0,1-19.59849-13.55409l10.12844-26.54825L493.821,457.77539l28.19549-11.45664,11.0299-4.48491,15.44484-6.26751,83.62039-33.9748,92.60318,32.07508s-6.45011,5.21137,4.04678,2.46246C739.11719,433.42351,733.646,449.8576,730.73324,455.34277Z" transform="translate(-219.41766 -163.36962)" fill="#2f2e41"/><path d="M438.41766,300.98242h30l4.72341,10.42578,20.091,8.95193A18.25955,18.25955,0,0,1,503.629,333.13627c7.23437,33.07129-1.9166,39.94254-2.21129,50.84615-1,37-6.15265,44.35981-5.57632,53.49367.17248,2.73358,1.84109,13.54205,7.2087,12.52419s2.47418,3.25505,3.74451,4.91622c1.09758,1.43527,6.87018-.46946,3.24664,4.29823s11.8678,17.76769,2.37647,17.76769c-18,0-54,9-68,9s-24.8189,4.151-31,4c-3.7673-.092-2.58943-17.6586-1.08367-32.8717.34094-3.44456,6.95562-3.35479,1.01964-9.74155s1.05143-9.70583,1.064-11.38675c.01338-1.78571,3.36516-6.28408-.81742-13.642s-.327-4.31321-.50869-6.62366c-1.4-17.805-3.40618-40.5074-3.40618-40.5074l-8.8435-24.88973A26.04062,26.04062,0,0,1,415.82423,317.377l10.37364-4.092Z" transform="translate(-219.41766 -163.36962)" fill="#198754"/><path d="M649.11327,291.80193a9.74338,9.74338,0,0,1-14.50321,3.13865l-42.261,23.92571L582.85726,308.804l50.40182-28.04993a9.72972,9.72972,0,0,1,15.85419,11.04785Z" transform="translate(-219.41766 -163.36962)" fill="#ffb6b6"/><path d="M458.83146,348.27769l-.64357,7.70473,84.134-1.08159,83.74648-47.0804-12.24324-18.84418L540.21691,319.925l-52.316,1.06091A29.77646,29.77646,0,0,0,458.83146,348.27769Z" transform="translate(-219.41766 -163.36962)" fill="#198754"/><circle cx="229.26124" cy="104.79777" r="27.32215" fill="#ffb6b6"/><path d="M479.3966,255.98242c-.45594.24-.90173.46-1.35767.68-.47615.23-.95237.46-1.42852.67-9.14888,4.15-16.59558,4.61-21.1143-1.35a25.26,25.26,0,0,0-2.077-9.1,14.62658,14.62658,0,0,1-2.41133,9.1h-9.09816c-9.37174,6.22-14.18426,6.87-7.67978,27.29,1.8136,5.69,9.02462,38.8,6.18779,43.71-.82066-.09-9.61228-27.35-10.40251-27.5-17.81139-3.37-31.28642-18-31.65114-35.66.02022-.9.081-1.8.17222-2.68a47.71735,47.71735,0,0,1,3.86014-5.04,30.59344,30.59344,0,0,1,3.1712-13.61,31.30416,31.30416,0,0,1,11.8945-12.94,55.16423,55.16423,0,0,1,9.50345-3.57c.08107-.02.152-.04.233-.06,1.003-.27,2.02632-.52,3.04962-.73a56.09643,56.09643,0,0,1,6.40319-.97c.152-.01.30393-.02.44579-.02a4.82509,4.82509,0,0,1,2.44169.67c.01014,0,.01014.01.02028.01a4.59717,4.59717,0,0,1,1.35767,1.21,4.65,4.65,0,0,1,.99288,2.89h10.1316q.5623,0,1.1246.03a27.16579,27.16579,0,0,1,26.19024,25.54C479.38646,255.03241,479.3966,255.50238,479.3966,255.98242Z" transform="translate(-219.41766 -163.36962)" fill="#2f2e41"/><circle cx="192" cy="79.6128" r="18" fill="#2f2e41"/><path d="M433.41766,228.98242c.34375,9.93518-8.05888,18-18,18a18,18,0,0,1-18-18c0-9.94113,12.03943-10.044,18-18C423.84972,199.72757,432.95409,215.584,433.41766,228.98242Z" transform="translate(-219.41766 -163.36962)" fill="#2f2e41"/><path d="M456.95239,510.56318c-2.795-41.47321,5.38725-80.48472,28.11105-116.23511a9.13979,9.13979,0,0,1,11.01963-6.7275l87.7833,21.23a9.13965,9.13965,0,0,1,6.72742,11.01958l-28.111,116.23516a9.1396,9.1396,0,0,1-11.0195,6.72747l-87.7833-21.23A9.13985,9.13985,0,0,1,456.95239,510.56318Z" transform="translate(-219.41766 -163.36962)" fill="#f2f2f2"/><path d="M474.15544,519.37135a9.13965,9.13965,0,0,1-6.72748-11.01951c-2.79509-41.47339,5.38722-80.48484,28.1109-116.2352a9.02169,9.02169,0,0,1,2.27158-4.09835l-1.7274-.41785a9.14,9.14,0,0,0-11.01965,6.72738c-22.72373,35.75044-30.906,74.76181-28.11089,116.2352a9.1396,9.1396,0,0,0,6.72747,11.0195l87.7832,21.23018a9.09906,9.09906,0,0,0,8.74807-2.629Z" transform="translate(-219.41766 -163.36962)" opacity="0.2" style="isolation:isolate"/><path d="M553.6351,470.44l-58.86472-14.06358a3.63129,3.63129,0,0,1,1.68757-7.06379l58.86472,14.06357a3.6313,3.6313,0,0,1-1.68765,7.06375Z" transform="translate(-219.41766 -163.36962)" fill="#fff"/><path d="M512.34819,440.10126l-12.95018-3.094a3.63132,3.63132,0,0,1,1.66535-7.06912l.0223.00538,12.95018,3.094a3.6313,3.6313,0,0,1-1.68765,7.06375Z" transform="translate(-219.41766 -163.36962)" fill="#fff"/><path d="M546.21584,501.49409l-58.86472-14.06358a3.63129,3.63129,0,0,1,1.68765-7.06374l58.86471,14.06357a3.63132,3.63132,0,1,1-1.66534,7.06912Z" transform="translate(-219.41766 -163.36962)" fill="#fff"/><path d="M549.92544,485.96706l-58.86471-14.06357a3.63131,3.63131,0,0,1,1.67919-7.06584l.00838.002L551.613,478.90327a3.63129,3.63129,0,0,1-1.68765,7.06374Z" transform="translate(-219.41766 -163.36962)" fill="#fff"/><circle cx="318.06386" cy="234.51998" r="15.14099" fill="#3f3d56"/><path d="M461.1386,519.23128a9.74337,9.74337,0,0,1-2.952-14.54235l-23.38049-42.56507,10.18346-9.36166,27.39972,50.75822a9.72972,9.72972,0,0,1-11.25073,15.71086Z" transform="translate(-219.41766 -163.36962)" fill="#ffb6b6"/><path d="M433.83014,330.81706,408.6833,328.3907a8.45373,8.45373,0,0,0-9.26564,8.41466v74.83231l46,84.34475,19-12-30-74Z" transform="translate(-219.41766 -163.36962)" fill="#198754"/><path d="M759.52329,227.41824c-52.78418,0-102.41406-1.92578-139.74707-5.42285-18.1792-1.70312-32.46094-3.688-42.44873-5.8999-14.61426-3.23633-16.3042-6.2168-16.3042-8.17725a1,1,0,1,1,2,0c0,1.12744,2.74512,7.00928,56.93945,12.08594,37.27295,3.49121,86.83643,5.41406,139.56055,5.41406s102.2876-1.92285,139.56055-5.41406c54.19433-5.07666,56.93945-10.9585,56.93945-12.08594a1,1,0,0,1,2,0c0,1.96045-1.68994,4.94092-16.3042,8.17725-9.98779,2.21191-24.26953,4.19678-42.44873,5.8999C861.93735,225.49246,812.30747,227.41824,759.52329,227.41824Z" transform="translate(-219.41766 -163.36962)" fill="#3f3d56"/><path d="M949.02329,191.27225a1.00005,1.00005,0,0,1-1-1c0-.21924-.6206-5.419-54.583-9.74463-35.76611-2.86719-83.32568-4.44629-133.917-4.44629s-98.15088,1.5791-133.917,4.44629c-53.9624,4.32568-54.583,9.52539-54.583,9.74463a1,1,0,0,1-2,0c0-1.78467,0-7.21534,56.42334-11.73829,35.81738-2.87158,83.43359-4.45263,134.07666-4.45263S857.78257,175.66238,893.6,178.534c56.42334,4.52295,56.42334,9.95362,56.42334,11.73829A1.00005,1.00005,0,0,1,949.02329,191.27225Z" transform="translate(-219.41766 -163.36962)" fill="#f2f2f2"/><path d="M632.35443,324.74433c5.83076-41.15631,21.89367-77.63684,51.51111-107.92329a9.13979,9.13979,0,0,1,12.17148-4.30657l81.506,38.90226a9.13965,9.13965,0,0,1,4.3065,12.17142l-51.511,107.92336a9.13961,9.13961,0,0,1-12.17136,4.30656l-81.506-38.90226A9.13984,9.13984,0,0,1,632.35443,324.74433Z" transform="translate(-219.41766 -163.36962)" fill="#f2f2f2"/><path d="M647.36742,336.91555a9.13964,9.13964,0,0,1-4.30656-12.17135c5.83069-41.1565,21.89366-77.637,51.511-107.92342a9.02179,9.02179,0,0,1,3.069-3.54084l-1.60385-.7656a9.14,9.14,0,0,0-12.17148,4.30644c-29.61738,30.28651-45.68028,66.76692-51.511,107.92342a9.1396,9.1396,0,0,0,4.30657,12.17135L718.167,375.81794a9.09907,9.09907,0,0,0,9.10244-.76559Z" transform="translate(-219.41766 -163.36962)" opacity="0.2" style="isolation:isolate"/><path d="M735.23935,305.45411l-54.691-25.91774a3.63129,3.63129,0,0,1,3.11008-6.563l54.691,25.91774a3.6313,3.6313,0,0,1-3.11015,6.5629Z" transform="translate(-219.41766 -163.36962)" fill="#fff"/><path d="M701.10846,267.2425l-12.032-5.7019a3.63132,3.63132,0,1,1,3.08943-6.57277l.02071.00987,12.032,5.7019a3.63129,3.63129,0,0,1-3.11014,6.5629Z" transform="translate(-219.41766 -163.36962)" fill="#fff"/><path d="M721.56641,334.30642l-54.691-25.91775a3.63129,3.63129,0,0,1,3.11014-6.56289l54.691,25.91774a3.63131,3.63131,0,1,1-3.08943,6.57276Z" transform="translate(-219.41766 -163.36962)" fill="#fff"/><path d="M728.40285,319.8803l-54.691-25.91774a3.63131,3.63131,0,0,1,3.1023-6.56669l.00778.00372,54.691,25.91774a3.63129,3.63129,0,0,1-3.11014,6.5629Z" transform="translate(-219.41766 -163.36962)" fill="#fff"/><circle cx="515.00026" cy="67.7621" r="15.14099" fill="#3f3d56"/><path d="M891.07666,361.06154C874.65582,325.43878,867.465,287.047,872.50129,244.98717c-.7781-4.89295,1.94935-9.79626,6.09693-10.96083l74.34318-20.77016c4.14933-1.15345,8.1455,1.87143,8.933,6.76177l18.57545,116.07437c.7781,4.893-1.94928,9.79627-6.09684,10.96075l-74.34318,20.77017C895.86046,368.97668,891.8642,365.95189,891.07666,361.06154Z" transform="translate(-219.41766 -163.36962)" fill="#f2f2f2"/><path d="M907.24685,361.12471c-4.14933,1.15344-8.14544-1.87133-8.933-6.76168-16.421-35.62287-23.61172-74.01464-18.57553-116.07439a10.72775,10.72775,0,0,1,.32275-4.671l-1.46295.40864c-4.14749,1.16458-6.87493,6.0678-6.097,10.96073-5.0362,42.05984,2.15454,80.45152,18.57552,116.07439.78746,4.89034,4.78365,7.91512,8.933,6.76168l74.34315-20.77a8.83444,8.83444,0,0,0,5.77425-6.28968Z" transform="translate(-219.41766 -163.36962)" opacity="0.2" style="isolation:isolate"/><path d="M951.0804,281.70546l-49.79273,14.08133c-1.65036.46429-3.2429-.73666-3.55708-2.68263a3.85819,3.85819,0,0,1,2.41235-4.362l49.79274-14.08133c1.65095-.46048,3.24134.74447,3.55223,2.69123a3.85873,3.85873,0,0,1-2.40758,4.3534Z" transform="translate(-219.41766 -163.36962)" fill="#fff"/><path d="M909.10336,273.37222,898.149,276.47008c-1.649.47276-3.24623-.71986-3.56753-2.66367a3.8617,3.8617,0,0,1,2.404-4.37567l.01889-.00529,10.95436-3.09786c1.651-.46048,3.24134.74447,3.55223,2.69123A3.85872,3.85872,0,0,1,909.10336,273.37222Z" transform="translate(-219.41766 -163.36962)" fill="#fff"/><path d="M956.11266,312.67551l-49.79274,14.08133c-1.651.46048-3.24134-.74447-3.55223-2.69122a3.85871,3.85871,0,0,1,2.40759-4.3534L954.968,305.63088c1.649-.47276,3.24623.71985,3.56754,2.66367a3.8617,3.8617,0,0,1-2.404,4.37566Z" transform="translate(-219.41766 -163.36962)" fill="#fff"/><path d="M953.59652,297.19053l-49.79273,14.08133c-1.64963.469-3.2447-.72748-3.56278-2.67218a3.85923,3.85923,0,0,1,2.411-4.37048l.0071-.002,49.79273-14.08134c1.65095-.46048,3.24134.74447,3.55223,2.69123a3.85872,3.85872,0,0,1-2.40758,4.3534Z" transform="translate(-219.41766 -163.36962)" fill="#fff"/><ellipse cx="913.75374" cy="224.47751" rx="15.14099" ry="12.63838" transform="translate(354.61905 938.56353) rotate(-82.63777)" fill="#3f3d56"/></svg>